# xmcd CD database file
#
# Track frame offsets:
#	150
#	21875
#	38415
#	53267
#	68405
#	80267
#	93847
#	105447
#	122235
#	137572
#	158785
#	178105
#	196732
#	211857
#	226847
#	243112
#	256710
#	274890
#	299977
#	316262
#	325985
#	343035
#
# Disc length: 4757 seconds
#
# Revision: 0
# Processed by: cddbd v1.5.1PL0 Copyright (c) Steve Scherf et al.
# Submitted via: CDex 1.51
#
DISCID=21129316
DTITLE=Groundhogs - High On The Hog [CD1]
DYEAR=2004
DGENRE=Blues
TTITLE0=Foolish Pride
TTITLE1=Dry Land
TTITLE2=Over Pressure
TTITLE3=Down In The Bottom
TTITLE4=Love In Vain
TTITLE5=Smokestack Lightnin'
TTITLE6=Baby How Long
TTITLE7=Bleachin' The Blues
TTITLE8=Mannish Boy
TTITLE9=Every Minute
TTITLE10=No Place To Go
TTITLE11=Took Me By Surprise
TTITLE12=Little Red Rooster
TTITLE13=Country Blues
TTITLE14=Wang Dang Doodle
TTITLE15=Terraplane Blues
TTITLE16=Hoochie Coochie Man
TTITLE17=Hooker And The Hogs
TTITLE18=Young Fashioned Ways
TTITLE19=BDD
TTITLE20=Status People
TTITLE21=A Year In The Life
EXTD=YEAR: 2004
EXTT0=
EXTT1=
EXTT2=
EXTT3=
EXTT4=
EXTT5=
EXTT6=
EXTT7=
EXTT8=
EXTT9=
EXTT10=
EXTT11=
EXTT12=
EXTT13=
EXTT14=
EXTT15=
EXTT16=
EXTT17=
EXTT18=
EXTT19=
EXTT20=
EXTT21=
PLAYORDER=
